<svg xmlns="http://www.w3.org/2000/svg" viewBox="0 0 206.01 88.37">
  <defs>
    <style>
      .cls-1 {
        fill: #fff;
      }

      .cls-2 {
        fill: #e52322;
      }

      .cls-3 {
        fill: #1d1d1b;
      }
    </style>
  </defs>
  <g id="Capa_2" data-name="Capa 2">
    <g id="Capa_1-2" data-name="Capa 1">
      <g>
        <path class="cls-1" d="M26,17.53a2,2,0,0,1-1.39-.59,3.32,3.32,0,0,1-.84-2.41,11.77,11.77,0,0,1,.15-1.62,2.72,2.72,0,0,1-1.15,1.2,3.38,3.38,0,0,1-1.63.42,3.26,3.26,0,0,1-1.62-.42A4.48,4.48,0,0,1,18.19,13,6.21,6.21,0,0,1,17,9a11.08,11.08,0,0,1,.15-1.82A10.85,10.85,0,0,1,19,2.31,6.7,6.7,0,0,1,20,1.16,4.27,4.27,0,0,1,22.85,0a3.6,3.6,0,0,1,1.29.24,2.58,2.58,0,0,1,1.72,2.65,4.23,4.23,0,0,1-.4,1.84,1.48,1.48,0,0,1-.4.56,1.25,1.25,0,0,1-.8.24,3.44,3.44,0,0,1-.83-.11c-.38-.07-.58-.22-.59-.46a.39.39,0,0,1,.07-.23,1.59,1.59,0,0,1,.15-.21,4.26,4.26,0,0,0,.41-.64,6.62,6.62,0,0,0,.48-1,2.62,2.62,0,0,0,.22-1c0-.44-.21-.66-.64-.66a2.62,2.62,0,0,0-1.52.6,6.27,6.27,0,0,0-1.73,2.39,12,12,0,0,0-1.1,5,5.69,5.69,0,0,0,.92,3.37,2.67,2.67,0,0,0,.61.6,1.33,1.33,0,0,0,.76.25,1.57,1.57,0,0,0,1-.48,4.72,4.72,0,0,0,1.21-1.89,9,9,0,0,0,.49-2.24l-1.08-.09a.93.93,0,0,1-.38-.1.27.27,0,0,1-.18-.26.32.32,0,0,1,.06-.18.44.44,0,0,1,.16-.14A1,1,0,0,1,23.23,8c1.21-.09,1.94-.14,2.18-.14q1.23,0,1.23,1.08a12.37,12.37,0,0,1-.42,2.17c-.14.6-.27,1.19-.39,1.79a9,9,0,0,0-.17,1.79c0,1.29.25,1.93.76,1.93h.23a.58.58,0,0,1,.18,0,.35.35,0,0,1,.16.29.42.42,0,0,1-.17.33,1,1,0,0,1-.4.2A1.82,1.82,0,0,1,26,17.53Z"/>
        <path class="cls-1" d="M31.67,13.1a1.62,1.62,0,0,1-1.36-.71,1.78,1.78,0,0,1-.27-.93v-.05a10.36,10.36,0,0,1,.26-1.71l.49-2.15A8.57,8.57,0,0,0,31,6.61a.17.17,0,0,0-.14-.19,1.36,1.36,0,0,0-.29,0H30.4l-.3,0-.43,0a19.34,19.34,0,0,1-.88,2.49.4.4,0,0,1-.33.18.38.38,0,0,1-.3-.13.53.53,0,0,1-.08-.22.94.94,0,0,1,.13-.38h0c.15-.4.3-.8.44-1.2l.27-.94-.07,0a1.13,1.13,0,0,1-.76-1,1.94,1.94,0,0,1,0-.24,2.41,2.41,0,0,1,.33-1.25,1.18,1.18,0,0,1,.69-.51.24.24,0,0,1,.16,0l.39,0h.13a.66.66,0,0,1,.34.12.53.53,0,0,1,.22.48,1.49,1.49,0,0,1-.1.55L30,5.07h1a4.3,4.3,0,0,1,.62,0,2.06,2.06,0,0,1,.6.17,1.16,1.16,0,0,1,.63.94v.21a3.51,3.51,0,0,1,0,.55c-.09.46-.25,1.16-.48,2.08A9.81,9.81,0,0,0,32,11.24v.23c0,.2.1.3.22.3h.06a1.39,1.39,0,0,0,.7-.47,6.62,6.62,0,0,0,.53-.72l.07-.11A7.61,7.61,0,0,0,34.36,9c0-.09.08-.2.14-.31.13-.27.29-.4.47-.4h.1a.37.37,0,0,1,.19.14.34.34,0,0,1,.08.23v.1a12.14,12.14,0,0,1-1.49,2.84,5.89,5.89,0,0,1-1.14,1.2A1.74,1.74,0,0,1,31.67,13.1Z"/>
        <path class="cls-1" d="M35.59,13h0a1.46,1.46,0,0,1-1.09-.7A2.93,2.93,0,0,1,34.08,11c0-.19,0-.38,0-.57a7.81,7.81,0,0,1,.09-1.18c.07-.4.15-.79.25-1.18a7.68,7.68,0,0,1,.4-1.23,4.28,4.28,0,0,1,.64-1.09A2.25,2.25,0,0,1,36.5,5,2,2,0,0,1,37.05,5a3.65,3.65,0,0,1,1.61.46,1.26,1.26,0,0,1,0-.28.47.47,0,0,1,.15-.35A.48.48,0,0,1,39,4.72a.84.84,0,0,1,.27,0,3.68,3.68,0,0,1,.59.18,1,1,0,0,1,.59.94,11.48,11.48,0,0,1-.39,1.87c-.14.53-.27,1.07-.38,1.61a12,12,0,0,0-.23,1.79.75.75,0,0,0,0,.26.42.42,0,0,0,.3.29h0a.51.51,0,0,0,.38-.18,2.86,2.86,0,0,0,.55-.73,16.68,16.68,0,0,0,1-2l.13-.26a.58.58,0,0,1,.21-.2.4.4,0,0,1,.21-.07c.14,0,.23.08.28.25a.57.57,0,0,1,0,.36,18.57,18.57,0,0,1-1.5,3,3,3,0,0,1-.78.9,1.63,1.63,0,0,1-.9.27,1.77,1.77,0,0,1-1-.33,1.75,1.75,0,0,1-.55-.68,1.93,1.93,0,0,1-.2-.85,1.5,1.5,0,0,1,0-.29l-.28.54a4.68,4.68,0,0,1-.5.87,2.09,2.09,0,0,1-.56.55A1.28,1.28,0,0,1,35.59,13Zm.47-1.37a.53.53,0,0,0,.15-.08l.12-.13.08-.1a7.06,7.06,0,0,0,.38-.66,4.13,4.13,0,0,0,.19-.44h0v0a34,34,0,0,0,1.13-3.36l.1-.34s0-.06,0-.12a.31.31,0,0,1,.2-.23l-.2-.1-.07,0h-.07l-.25,0-.11,0h0a.29.29,0,0,0-.1,0l-.16.1h0a2,2,0,0,0-.32.33l0,0a1.77,1.77,0,0,0-.17.26c-.08.14-.14.28-.21.43l-.09.21A9.38,9.38,0,0,0,36,9.57l0,.27c0,.34-.06.68-.07,1l0,.47A1.68,1.68,0,0,0,36.06,11.66Z"/>
        <path class="cls-1" d="M42.16,13.06a1,1,0,0,1-.57-.18.56.56,0,0,1-.28-.5,3.62,3.62,0,0,1,.08-.56q.36-2.38.94-5.76a4.54,4.54,0,0,0,.09-.83V5a.36.36,0,0,1,.1-.27.4.4,0,0,1,.27-.11H43l.17,0a1.4,1.4,0,0,1,.65.18,1.06,1.06,0,0,1,.5.86,1.82,1.82,0,0,1,0,.32h0L44.13,7l-.19,1.14A10,10,0,0,1,45.1,5.81a1.8,1.8,0,0,1,1.45-.9,1.19,1.19,0,0,1,.76.28,1.63,1.63,0,0,1,.52,1.34,3.85,3.85,0,0,1,0,.48c-.07.61-.17,1.22-.3,1.84-.07.4-.15.82-.22,1.27l0,.11a6.52,6.52,0,0,0-.1,1,2,2,0,0,0,0,.33.49.49,0,0,0,.12.26.28.28,0,0,0,.21.08,1.32,1.32,0,0,0,.83-.49l0,0a4.13,4.13,0,0,0,.83-1,2.5,2.5,0,0,0,.34-1.25V8.9a.8.8,0,0,0-.15-.38.47.47,0,0,1-.12-.28.44.44,0,0,1,.3-.42,1.28,1.28,0,0,1,.57-.15,1,1,0,0,1,.51.15,1.24,1.24,0,0,1,.45,1,2.59,2.59,0,0,1-.17.92,5.89,5.89,0,0,1-1.37,1.94A3.56,3.56,0,0,1,47.09,13a2,2,0,0,1-.8-.17,1.4,1.4,0,0,1-.62-.54,1.64,1.64,0,0,1-.23-.64,5.39,5.39,0,0,1,0-.71,8.26,8.26,0,0,1,.1-1.31c.07-.43.14-.87.22-1.3l.12-.64.1-.64a4.5,4.5,0,0,0,0-.45c0-.17,0-.26-.16-.27a.21.21,0,0,0-.17.09c-.09.1-.14.16-.14.19a5.6,5.6,0,0,0-.51,1l0,.1a28.71,28.71,0,0,0-1.51,4.42,2.76,2.76,0,0,1-.15.55.67.67,0,0,1-.27.31,1.48,1.48,0,0,1-.59.12h-.27Z"/>
        <path class="cls-1" d="M57.18,13a1.36,1.36,0,0,1-1-.42,2.18,2.18,0,0,1-.49-1.21,15.67,15.67,0,0,1-.12-1.94c0-.57,0-1.11,0-1.62s.06-1,.06-1.53a3.48,3.48,0,0,0-.08-.84,1,1,0,0,1-.05-.33c0-.2.14-.32.43-.35a1.74,1.74,0,0,1,1.55.59,1.44,1.44,0,0,1,.14.62l0,.36-.16,2.17c-.05.56-.07,1.14-.07,1.71q0,.31,0,.63a3.5,3.5,0,0,0,.12.63c.07.2.17.3.31.3a.48.48,0,0,0,.33-.19,3.77,3.77,0,0,0,.66-1.06,11.45,11.45,0,0,0,.71-2.38,8.75,8.75,0,0,0,.24-1.82,4.49,4.49,0,0,0-.11-1,1.81,1.81,0,0,1-.05-.32.42.42,0,0,1,.06-.21.37.37,0,0,1,.17-.13.57.57,0,0,1,.22,0,1.24,1.24,0,0,1,.81.32.93.93,0,0,1,.3.71,2.18,2.18,0,0,1-.08.61c-.19.89-.41,1.78-.67,2.66a10.64,10.64,0,0,1-1.09,2.49A2.62,2.62,0,0,1,57.18,13Z"/>
        <path class="cls-1" d="M62.72,13h0a1.46,1.46,0,0,1-1.09-.7A2.8,2.8,0,0,1,61.21,11a5.44,5.44,0,0,1,0-.57,7.83,7.83,0,0,1,.1-1.18c.06-.4.15-.79.24-1.18a10.39,10.39,0,0,1,.4-1.23,4.63,4.63,0,0,1,.65-1.09A2.25,2.25,0,0,1,63.63,5,2,2,0,0,1,64.18,5a3.65,3.65,0,0,1,1.61.46.86.86,0,0,1,0-.28.47.47,0,0,1,.15-.35.46.46,0,0,1,.23-.06.86.86,0,0,1,.28,0,3.28,3.28,0,0,1,.58.18,1,1,0,0,1,.6.94,10.86,10.86,0,0,1-.4,1.87c-.13.53-.26,1.07-.37,1.61a10.83,10.83,0,0,0-.23,1.79.75.75,0,0,0,0,.26.42.42,0,0,0,.3.29h0a.49.49,0,0,0,.37-.18,2.89,2.89,0,0,0,.56-.73,18.27,18.27,0,0,0,1-2A1.58,1.58,0,0,1,69,8.5a.64.64,0,0,1,.2-.2.46.46,0,0,1,.22-.07c.14,0,.23.08.28.25a.87.87,0,0,1,0,.36,17.83,17.83,0,0,1-1.51,3,2.92,2.92,0,0,1-.77.9,1.66,1.66,0,0,1-.9.27,1.77,1.77,0,0,1-1-.33A1.75,1.75,0,0,1,65,12a1.93,1.93,0,0,1-.2-.85,1.5,1.5,0,0,1,0-.29c-.1.19-.2.37-.28.54a5.32,5.32,0,0,1-.5.87,2.09,2.09,0,0,1-.56.55A1.28,1.28,0,0,1,62.72,13Zm.47-1.37a.53.53,0,0,0,.15-.08l.12-.13.07-.1a7.65,7.65,0,0,0,.39-.66,4.13,4.13,0,0,0,.19-.44h0v0c.44-1.12.81-2.24,1.13-3.36l.1-.34a.17.17,0,0,0,0-.12.31.31,0,0,1,.2-.23l-.2-.1-.07,0h-.07A1.34,1.34,0,0,0,65,6l-.1,0h-.06l-.09,0-.16.1h0a2,2,0,0,0-.32.33l0,0a1.77,1.77,0,0,0-.17.26,3.42,3.42,0,0,0-.21.43l-.1.21a9.35,9.35,0,0,0-.57,2.1l0,.27c0,.34-.05.68-.07,1l0,.47A1.18,1.18,0,0,0,63.19,11.66Z"/>
        <path class="cls-1" d="M72.55,13.1a1.59,1.59,0,0,1-.48-.07,1.62,1.62,0,0,1-.87-.64,1.78,1.78,0,0,1-.27-.93v-.05A11.75,11.75,0,0,1,71.2,9.7l.48-2.15a7.15,7.15,0,0,0,.16-.94.18.18,0,0,0-.14-.19,1.39,1.39,0,0,0-.3,0h-.11l-.3,0-.44,0a16.72,16.72,0,0,1-.88,2.49.37.37,0,0,1-.32.18.35.35,0,0,1-.3-.13A.53.53,0,0,1,69,8.64a.81.81,0,0,1,.13-.38h0c.15-.4.29-.8.43-1.2l.28-.94-.07,0a1.12,1.12,0,0,1-.76-1,1.94,1.94,0,0,1,0-.24A2.41,2.41,0,0,1,69.3,3.6,1.18,1.18,0,0,1,70,3.09a.21.21,0,0,1,.15,0l.39,0h.14a.63.63,0,0,1,.33.12.52.52,0,0,1,.23.48,1.49,1.49,0,0,1-.1.55l-.24.89h1a4.3,4.3,0,0,1,.62,0,2.09,2.09,0,0,1,.59.17,1.18,1.18,0,0,1,.64.94v.21a3.51,3.51,0,0,1-.05.55c-.09.46-.25,1.16-.48,2.08a9.81,9.81,0,0,0-.39,2.18v.23c0,.2.11.3.23.3h.06a1.43,1.43,0,0,0,.7-.47,6.62,6.62,0,0,0,.53-.72l.07-.11A8.85,8.85,0,0,0,75.25,9a2,2,0,0,1,.14-.31c.13-.27.29-.4.47-.4H76a.39.39,0,0,1,.2.14.4.4,0,0,1,.08.23l0,.1a11.75,11.75,0,0,1-1.48,2.84,5.89,5.89,0,0,1-1.14,1.2A1.77,1.77,0,0,1,72.55,13.1Z"/>
        <path class="cls-1" d="M76.7,13h-.15a1.67,1.67,0,0,1-.92-.32,1.78,1.78,0,0,1-.62-1,4.27,4.27,0,0,1-.07-.71c0-.17,0-.35,0-.52a19.32,19.32,0,0,1,.31-2c.15-.65.31-1.31.48-2a3.07,3.07,0,0,0,.13-.5,2.22,2.22,0,0,0,.06-.51V5.17c0-.3.12-.45.38-.45a1.28,1.28,0,0,1,.46.08l.07,0a1.24,1.24,0,0,1,.8.55,1.26,1.26,0,0,1,.11.51,2.16,2.16,0,0,1-.1.66l-.2.83c-.26,1-.48,2-.65,3a3.92,3.92,0,0,0,0,.59,1.3,1.3,0,0,0,.1.56.31.31,0,0,0,.28.19.6.6,0,0,0,.46-.28,6.38,6.38,0,0,0,.66-1c.18-.35.36-.7.52-1.06s.25-.54.38-.81a.76.76,0,0,1,.25-.31.29.29,0,0,1,.16,0,.38.38,0,0,1,.24.08.34.34,0,0,1,.13.21V8.6a.64.64,0,0,1-.1.33,23.13,23.13,0,0,1-1.5,2.94,2.61,2.61,0,0,1-.79.89A1.76,1.76,0,0,1,76.7,13Zm.43-8.65h0a.54.54,0,0,1-.25-.06.93.93,0,0,1-.48-.64.76.76,0,0,1,0-.15.5.5,0,0,1,.14-.36.72.72,0,0,1,.36-.21,1.24,1.24,0,0,1,.31-.06h0a.7.7,0,0,1,.46.19,1,1,0,0,1,.26.46.65.65,0,0,1,0,.2.52.52,0,0,1-.09.29A1,1,0,0,1,77.13,4.34Z"/>
        <path class="cls-1" d="M81.27,13a2.34,2.34,0,0,1-1.73-.8,3.32,3.32,0,0,1-.87-2.36A5.6,5.6,0,0,1,79,7.92,5.6,5.6,0,0,1,80.07,6,3,3,0,0,1,82,4.9l.27,0a1.42,1.42,0,0,1,.8.21,1.23,1.23,0,0,1,.46.57,1.91,1.91,0,0,1,.15.76,2.56,2.56,0,0,1-.51,1.5,4.39,4.39,0,0,1-1,.94,13.64,13.64,0,0,1-1.23.72.33.33,0,0,0-.15.11,1.47,1.47,0,0,0-.07.57,3.37,3.37,0,0,0,.3,1.38,1,1,0,0,0,.69.27,1.89,1.89,0,0,0,1-.41,5.89,5.89,0,0,0,1.21-1.28,11.26,11.26,0,0,0,.9-1.54c.14-.29.31-.43.49-.43a.3.3,0,0,1,.29.21.45.45,0,0,1,0,.19,5.39,5.39,0,0,1-.88,1.74,10,10,0,0,1-.73,1,4.15,4.15,0,0,1-1.76,1.39A2.69,2.69,0,0,1,81.27,13Zm-.4-4.27A4.34,4.34,0,0,0,82.4,7.62a1.92,1.92,0,0,0,.44-.74.87.87,0,0,0,0-.3,1.14,1.14,0,0,0-.08-.4.25.25,0,0,0-.25-.2.49.49,0,0,0-.38.19,4.09,4.09,0,0,0-1,1.69A7.25,7.25,0,0,0,80.87,8.73Z"/>
        <path class="cls-1" d="M86,13.05a1.61,1.61,0,0,1-.48-.08,2,2,0,0,1-1.13-2.09,5.4,5.4,0,0,1,0-.56,9.8,9.8,0,0,1,1.12-3.77A2.73,2.73,0,0,1,87.25,5a1.27,1.27,0,0,1,.34,0,2.46,2.46,0,0,1,.88.17,6.52,6.52,0,0,1,.84.41C89.69,4,90,2.41,90.23.84a1.55,1.55,0,0,1,0-.23.38.38,0,0,1,.14-.19.34.34,0,0,1,.22-.07A1,1,0,0,1,91,.41,1.28,1.28,0,0,1,92,1.69a2.32,2.32,0,0,1-.07.56l-1.71,7.89a4.62,4.62,0,0,0-.07.82,2.44,2.44,0,0,0,0,.27.85.85,0,0,0,0,.24.28.28,0,0,0,.13.17.33.33,0,0,0,.19.06.63.63,0,0,0,.37-.14,6.6,6.6,0,0,0,2-2.72,1.27,1.27,0,0,1,.28-.48.45.45,0,0,1,.3-.11.48.48,0,0,1,.22.08.33.33,0,0,1,.1.25.89.89,0,0,1-.11.4A13.1,13.1,0,0,1,92,11.85a4.42,4.42,0,0,1-1,.88,1.79,1.79,0,0,1-1,.3l-.25,0a1.61,1.61,0,0,1-1.07-.73A2.41,2.41,0,0,1,88.35,11c-.15.28-.32.55-.49.81a3.23,3.23,0,0,1-.62.71A1.89,1.89,0,0,1,86,13.05Zm.63-1.38a.55.55,0,0,0,.41-.25,4.86,4.86,0,0,0,.62-.93c.17-.34.33-.69.47-1L88.26,9q.27-.64.51-1.32a8.21,8.21,0,0,0,.36-1.33.49.49,0,0,0,0-.15L89,6.18a1.56,1.56,0,0,0-.6-.18.73.73,0,0,0-.51.21,2,2,0,0,0-.39.49A10.57,10.57,0,0,0,86.32,10a3.44,3.44,0,0,0-.1.84,1.27,1.27,0,0,0,.13.65A.26.26,0,0,0,86.6,11.67Z"/>
        <path class="cls-1" d="M94.06,13h0a1.48,1.48,0,0,1-1.1-.7A2.79,2.79,0,0,1,92.56,11a5.44,5.44,0,0,1,0-.57,6.72,6.72,0,0,1,.1-1.18,11.74,11.74,0,0,1,.24-1.18,8.83,8.83,0,0,1,.4-1.23,4.59,4.59,0,0,1,.64-1.09A2.3,2.3,0,0,1,95,5,2.09,2.09,0,0,1,95.52,5a3.61,3.61,0,0,1,1.61.46,1.27,1.27,0,0,1,0-.28.47.47,0,0,1,.15-.35.41.41,0,0,1,.23-.06.9.9,0,0,1,.28,0,3.56,3.56,0,0,1,.58.18.94.94,0,0,1,.59.94,11.48,11.48,0,0,1-.39,1.87c-.14.53-.26,1.07-.37,1.61a10.84,10.84,0,0,0-.24,1.79.75.75,0,0,0,0,.26.42.42,0,0,0,.29.29h0a.49.49,0,0,0,.37-.18,2.89,2.89,0,0,0,.56-.73,20.19,20.19,0,0,0,1-2,1.05,1.05,0,0,1,.13-.26.64.64,0,0,1,.2-.2.43.43,0,0,1,.21-.07.28.28,0,0,1,.28.25.77.77,0,0,1,0,.15.52.52,0,0,1,0,.21,18.57,18.57,0,0,1-1.5,3,2.92,2.92,0,0,1-.77.9,1.69,1.69,0,0,1-.91.27,1.77,1.77,0,0,1-1-.33A1.84,1.84,0,0,1,96.3,12a1.92,1.92,0,0,1-.19-.85,1.46,1.46,0,0,1,0-.29l-.28.54a5.27,5.27,0,0,1-.49.87,2.29,2.29,0,0,1-.57.55A1.26,1.26,0,0,1,94.06,13Zm.47-1.37a.35.35,0,0,0,.15-.08l.12-.13.08-.1a5.33,5.33,0,0,0,.38-.66,2.64,2.64,0,0,0,.19-.44h0v0a34,34,0,0,0,1.13-3.36l.11-.34a.17.17,0,0,0,0-.12.33.33,0,0,1,.2-.23l-.2-.1-.06,0h-.08l-.25,0-.1,0h-.06a.21.21,0,0,0-.09,0l-.17.1h0a2,2,0,0,0-.32.33l0,0-.17.26c-.07.14-.14.28-.2.43l-.1.21a8.85,8.85,0,0,0-.57,2.1l0,.27c0,.34-.06.68-.07,1l0,.47A1.28,1.28,0,0,0,94.53,11.66Z"/>
        <path class="cls-1" d="M101.44,13.05a1.42,1.42,0,0,1-1.12-.46,2.13,2.13,0,0,1-.41-.84,4,4,0,0,1-.13-1,6.67,6.67,0,0,1,.18-1.5,10.09,10.09,0,0,1,.42-1.44,7.35,7.35,0,0,1,.8-1.74A2.37,2.37,0,0,1,102.59,5a2.4,2.4,0,0,1,.46,0,3.24,3.24,0,0,1,1.67.54l0,0,.13-.62c.24-1.1.44-2.06.6-2.89l.05-.27a4.44,4.44,0,0,0,.13-.93V.71a.34.34,0,0,1,.12-.26.4.4,0,0,1,.27-.11l.14,0,.52.14a1.09,1.09,0,0,1,.58.42,1,1,0,0,1,.22.65,2.2,2.2,0,0,1-.06.5c-.3,1.45-.59,2.77-.86,4l-.6,2.7c-.13.56-.24,1.12-.33,1.67l0,.16a2.21,2.21,0,0,0,0,.51.83.83,0,0,0,.12.46.37.37,0,0,0,.34.19,1.22,1.22,0,0,0,.67-.24,3.14,3.14,0,0,0,1.4-2.13c0-.11,0-.22,0-.34a.67.67,0,0,0-.13-.46.46.46,0,0,1-.14-.31.48.48,0,0,1,.29-.41,1.18,1.18,0,0,1,.56-.15.91.91,0,0,1,.76.39,1.49,1.49,0,0,1,.23.82,2.69,2.69,0,0,1-.32,1.24,6.46,6.46,0,0,1-2,2.2,3.35,3.35,0,0,1-1.89.72,1.68,1.68,0,0,1-1.39-.74,2.58,2.58,0,0,1-.35-1.28,7.87,7.87,0,0,1-.59,1,3.27,3.27,0,0,1-.76.77A1.74,1.74,0,0,1,101.44,13.05Zm.54-1.37a.6.6,0,0,0,.41-.21,5.28,5.28,0,0,0,1-1.55q.25-.59.57-1.47a16.93,16.93,0,0,0,.7-2.26l0,0a1.79,1.79,0,0,1-.5-.16l-.16,0a.79.79,0,0,0-.3.07l-.17.07a3.27,3.27,0,0,0-.77,1,8.5,8.5,0,0,0-.47,1.2,15.53,15.53,0,0,0-.56,2,4.22,4.22,0,0,0,0,.49,1.7,1.7,0,0,0,.09.57C101.76,11.59,101.85,11.68,102,11.68Z"/>
        <path class="cls-1" d="M115.7,13.05a1.61,1.61,0,0,1-.48-.08,2,2,0,0,1-1.13-2.09,5.4,5.4,0,0,1,0-.56,9.63,9.63,0,0,1,1.12-3.77A2.69,2.69,0,0,1,117,5a1.27,1.27,0,0,1,.34,0,2.5,2.5,0,0,1,.88.17,6.52,6.52,0,0,1,.84.41c.38-1.55.69-3.11.92-4.68A.86.86,0,0,1,120,.61a.38.38,0,0,1,.14-.19.32.32,0,0,1,.22-.07.91.91,0,0,1,.32.06,1.28,1.28,0,0,1,1.08,1.28,2.32,2.32,0,0,1-.07.56C120.6,7.33,120,10,120,10.14a4.62,4.62,0,0,0-.07.82,2.44,2.44,0,0,0,0,.27.6.6,0,0,0,0,.24.28.28,0,0,0,.13.17.32.32,0,0,0,.18.06.64.64,0,0,0,.38-.14,6.5,6.5,0,0,0,2-2.72,1.29,1.29,0,0,1,.29-.48.43.43,0,0,1,.3-.11.4.4,0,0,1,.21.08.34.34,0,0,1,.11.25.89.89,0,0,1-.11.4,13.49,13.49,0,0,1-1.78,2.87,4.42,4.42,0,0,1-.95.88,1.79,1.79,0,0,1-1,.3l-.25,0a1.61,1.61,0,0,1-1.07-.73,2.41,2.41,0,0,1-.37-1.26c-.16.28-.32.55-.49.81a3.51,3.51,0,0,1-.62.71A1.89,1.89,0,0,1,115.7,13.05Zm.63-1.38a.55.55,0,0,0,.41-.25,4.86,4.86,0,0,0,.62-.93c.17-.34.32-.69.46-1L118,9q.27-.64.51-1.32a8.21,8.21,0,0,0,.36-1.33.44.44,0,0,0,0-.15l-.13-.06a1.56,1.56,0,0,0-.6-.18.72.72,0,0,0-.5.21,2,2,0,0,0-.39.49A10.57,10.57,0,0,0,116.05,10a3.46,3.46,0,0,0-.11.84,1.26,1.26,0,0,0,.14.65A.26.26,0,0,0,116.33,11.67Z"/>
        <path class="cls-1" d="M125.62,13.25a4.45,4.45,0,0,1-2-.49,2.18,2.18,0,0,1-.8-.73,2.85,2.85,0,0,1-.42-1,4.35,4.35,0,0,1-.13-1.07,6.36,6.36,0,0,1,.31-1.92,5.66,5.66,0,0,1,.91-1.78A3.58,3.58,0,0,1,125,5.11a2.22,2.22,0,0,1,.85-.17,1.61,1.61,0,0,1,.82.23,1.14,1.14,0,0,1,.45.52,1.72,1.72,0,0,1,.14.68,2.5,2.5,0,0,1-.21,1,2.31,2.31,0,0,1-.57.84,7.38,7.38,0,0,1-2.08,1.51,5.17,5.17,0,0,0,0,.57,2.47,2.47,0,0,0,.37,1.48.83.83,0,0,0,.46.28,2.57,2.57,0,0,0,.55.06,4.07,4.07,0,0,0,.79-.08l.79-.21s.06,0,.18-.1l.16-.08A3.24,3.24,0,0,0,129,10.12a2.61,2.61,0,0,0,.29-1.07.85.85,0,0,0-.17-.51.38.38,0,0,1-.13-.3.46.46,0,0,1,.28-.42,1.22,1.22,0,0,1,.58-.15.94.94,0,0,1,.68.3,1.33,1.33,0,0,1,.29.89,2.87,2.87,0,0,1-.42,1.45,5.76,5.76,0,0,1-1,1.32A5.35,5.35,0,0,1,125.62,13.25Zm-1.13-4.49a6.14,6.14,0,0,0,1.31-1,1.63,1.63,0,0,0,.59-1.15,1.55,1.55,0,0,0-.06-.39c0-.14-.13-.22-.25-.22s-.41.2-.68.6A5.89,5.89,0,0,0,124.49,8.76Z"/>
        <path class="cls-1" d="M137.78,13a2.31,2.31,0,0,1-.46-.05A2.37,2.37,0,0,1,136,12.2a3.32,3.32,0,0,1-.86-2.36,5.6,5.6,0,0,1,.34-1.92A5.29,5.29,0,0,1,136.58,6,3,3,0,0,1,138.5,4.9l.27,0a1.42,1.42,0,0,1,.8.21,1.23,1.23,0,0,1,.46.57,1.91,1.91,0,0,1,.15.76,2.56,2.56,0,0,1-.51,1.5,4.39,4.39,0,0,1-1,.94q-.6.39-1.23.72a.36.36,0,0,0-.16.11,1.7,1.7,0,0,0-.07.57,3.38,3.38,0,0,0,.31,1.38,1,1,0,0,0,.69.27,1.83,1.83,0,0,0,1-.41,5.71,5.71,0,0,0,1.22-1.28,11.26,11.26,0,0,0,.9-1.54c.14-.29.3-.43.48-.43a.31.31,0,0,1,.3.21.43.43,0,0,1,0,.19,5.17,5.17,0,0,1-.88,1.74,11.76,11.76,0,0,1-.72,1,4.15,4.15,0,0,1-1.76,1.39A2.69,2.69,0,0,1,137.78,13Zm-.4-4.27a4.43,4.43,0,0,0,1.53-1.11,1.92,1.92,0,0,0,.44-.74,1.26,1.26,0,0,0,0-.3,1.12,1.12,0,0,0-.07-.4.25.25,0,0,0-.26-.2.48.48,0,0,0-.37.19,4,4,0,0,0-1,1.69A7.25,7.25,0,0,0,137.38,8.73Z"/>
        <path class="cls-1" d="M141.88,13a1,1,0,0,1-.94-.4,1,1,0,0,1-.07-.35,1.61,1.61,0,0,1,0-.37C141.65,7.38,142,5.08,142,5a1.24,1.24,0,0,1,0-.22q.06-.15.36-.15a1.34,1.34,0,0,1,.35,0,1.23,1.23,0,0,1,.9.51,1.21,1.21,0,0,1,.18.64,3.76,3.76,0,0,1-.14.86,3.18,3.18,0,0,0-.13.79v0l.32-.64q.16-.37.36-.72a2.55,2.55,0,0,1,1-1.09,1.44,1.44,0,0,1,.67-.16,1.28,1.28,0,0,1,.77.26,1.31,1.31,0,0,1,.41.72,3.69,3.69,0,0,1,.1.87A8.87,8.87,0,0,1,147.8,6a2.75,2.75,0,0,1,.69-.67A1.86,1.86,0,0,1,149.55,5a1.44,1.44,0,0,1,.77.23,1.78,1.78,0,0,1,.61,1.46,10.72,10.72,0,0,1-.34,2.08c-.1.4-.19.8-.26,1.2a7.5,7.5,0,0,0-.11,1.27,1,1,0,0,0,0,.3.43.43,0,0,0,.14.23.37.37,0,0,0,.18,0,.65.65,0,0,0,.38-.13,3,3,0,0,0,.81-.86,9.28,9.28,0,0,0,1-1.94,1.11,1.11,0,0,1,.26-.45.41.41,0,0,1,.31-.14.3.3,0,0,1,.16,0,.38.38,0,0,1,.14.31,1,1,0,0,1-.09.41,12.42,12.42,0,0,1-1.32,2.43A2.83,2.83,0,0,1,150,13a1.42,1.42,0,0,1-1.07-.41,2.07,2.07,0,0,1-.52-1.35v-.4a7.06,7.06,0,0,1,.1-1.21c.08-.4.16-.81.25-1.21A9.31,9.31,0,0,0,149,6.72,1.16,1.16,0,0,0,149,6.3l-.07,0a.41.41,0,0,0-.29.16,4.93,4.93,0,0,0-1,1.32,8.46,8.46,0,0,0-1,4,1.6,1.6,0,0,1,0,.3.42.42,0,0,1-.14.25.69.69,0,0,1-.41.12h-.19a2.33,2.33,0,0,1-.59-.08.69.69,0,0,1-.44-.32,1.18,1.18,0,0,1-.11-.5v-.15A15.94,15.94,0,0,1,145,8.78a19.76,19.76,0,0,0,.33-2.2.38.38,0,0,0,0-.19.11.11,0,0,0-.11-.09.19.19,0,0,0-.15.08,4,4,0,0,0-.61,1,26.11,26.11,0,0,0-1.7,5.1.63.63,0,0,1-.17.37.69.69,0,0,1-.42.14Z"/>
        <path class="cls-1" d="M152.36,18.8h-.6a.81.81,0,0,1-.61-.31,1,1,0,0,1-.21-.61,1.69,1.69,0,0,1,0-.33l0-.16c.29-1.71.63-3.51,1-5.43.25-1.23.47-2.39.68-3.49s.35-1.92.45-2.73a3.59,3.59,0,0,0,.07-.65V4.91a.34.34,0,0,1,.11-.25.39.39,0,0,1,.26-.1.64.64,0,0,1,.23.05l.21.11a1.73,1.73,0,0,1,.57.3,1.17,1.17,0,0,1,.38.79,2.19,2.19,0,0,1,1.59-.9,1.66,1.66,0,0,1,1.29.64,3.56,3.56,0,0,1,.64,2.25,7.12,7.12,0,0,1-.34,2.14A4.79,4.79,0,0,1,157,11.87a4.58,4.58,0,0,0,1.69-1.15A7.13,7.13,0,0,0,159.87,9l.12-.28c0-.12.11-.24.17-.36a.34.34,0,0,1,.31-.19.37.37,0,0,1,.27.1.34.34,0,0,1,.09.24,2,2,0,0,1-.22.76c-.08.16-.21.41-.39.73a5.63,5.63,0,0,1-2.53,2.51,4.74,4.74,0,0,1-2.09.48,6,6,0,0,1-.84-.07,2,2,0,0,1-.7-.19c-.18-.1-.26-.17-.26-.21l-.33,1.77c-.39,2.1-.63,3.41-.71,3.93a1.83,1.83,0,0,1-.09.4A.31.31,0,0,1,152.36,18.8Zm2.22-7a1,1,0,0,0,.77-.38,3.35,3.35,0,0,0,.59-.94,7.24,7.24,0,0,0,.4-1.16,8.83,8.83,0,0,0,.21-1,7.46,7.46,0,0,0,.06-1,4.07,4.07,0,0,0-.05-.61,2.05,2.05,0,0,0-.08-.28c0-.1-.06-.2-.09-.28l0-.11A.35.35,0,0,0,156.1,6a.36.36,0,0,0-.27.11,1.7,1.7,0,0,0-.22.24l-.14.15a4.94,4.94,0,0,0-.91,1.87l-.42,2.31a2.9,2.9,0,0,0,0,.43C154.11,11.59,154.27,11.85,154.58,11.85Z"/>
        <path class="cls-1" d="M161.09,13h0a1.5,1.5,0,0,1-1.1-.7,2.91,2.91,0,0,1-.37-1.29,5.44,5.44,0,0,1,0-.57,7.83,7.83,0,0,1,.1-1.18,11.74,11.74,0,0,1,.24-1.18,10.39,10.39,0,0,1,.4-1.23,4.63,4.63,0,0,1,.65-1.09A2.25,2.25,0,0,1,162,5a2,2,0,0,1,.55-.08,3.65,3.65,0,0,1,1.61.46.86.86,0,0,1,0-.28.47.47,0,0,1,.15-.35.46.46,0,0,1,.23-.06.86.86,0,0,1,.28,0,3.56,3.56,0,0,1,.58.18,1,1,0,0,1,.6.94,10.86,10.86,0,0,1-.4,1.87c-.13.53-.26,1.07-.37,1.61a9.86,9.86,0,0,0-.23,1.79.75.75,0,0,0,0,.26.42.42,0,0,0,.29.29h0a.49.49,0,0,0,.37-.18,2.89,2.89,0,0,0,.56-.73,18.27,18.27,0,0,0,1-2,1.58,1.58,0,0,1,.13-.26.64.64,0,0,1,.2-.2.46.46,0,0,1,.22-.07c.14,0,.23.08.28.25a.87.87,0,0,1,0,.36,18.62,18.62,0,0,1-1.51,3,2.92,2.92,0,0,1-.77.9,1.67,1.67,0,0,1-.91.27,1.76,1.76,0,0,1-1-.33,1.86,1.86,0,0,1-.56-.68,1.92,1.92,0,0,1-.19-.85,1.5,1.5,0,0,1,0-.29c-.1.19-.2.37-.28.54a5.32,5.32,0,0,1-.5.87,2.25,2.25,0,0,1-.56.55A1.28,1.28,0,0,1,161.09,13Zm.46-1.37a.48.48,0,0,0,.16-.08l.11-.13.08-.1a7.65,7.65,0,0,0,.39-.66,4.13,4.13,0,0,0,.19-.44h0v0c.44-1.12.81-2.24,1.13-3.36l.1-.34a.17.17,0,0,0,0-.12.31.31,0,0,1,.2-.23l-.2-.1-.07,0h-.07l-.26,0-.1,0h-.06l-.09,0-.16.1h0a2,2,0,0,0-.32.33l0,0a1.77,1.77,0,0,0-.17.26,3.42,3.42,0,0,0-.21.43l-.1.21a8.85,8.85,0,0,0-.57,2.1l0,.27c0,.34-.06.68-.07,1l0,.47A1.91,1.91,0,0,0,161.55,11.66Z"/>
        <path class="cls-1" d="M168,13a5,5,0,0,1-.66,0,.63.63,0,0,1-.43-.31.77.77,0,0,1-.09-.36,1.87,1.87,0,0,1,0-.34c.24-1.43.47-2.83.68-4.2L168,5a.34.34,0,0,1,.11-.24.46.46,0,0,1,.25-.06,2.09,2.09,0,0,1,1,.3.89.89,0,0,1,.41.79c0,.1,0,.21,0,.31s-.16.94-.41,2.53A16.64,16.64,0,0,1,170,7a6.41,6.41,0,0,1,.88-1.41,2.57,2.57,0,0,1,.55-.5,1.16,1.16,0,0,1,.68-.2,1.33,1.33,0,0,1,1,.48,1.94,1.94,0,0,1,.32,1.16,17.16,17.16,0,0,1-.32,2.31c-.11.55-.2,1.11-.26,1.68a2.74,2.74,0,0,0,0,1,.46.46,0,0,0,.09.2.2.2,0,0,0,.17.1.28.28,0,0,0,.22-.1A2.48,2.48,0,0,0,174,11a10,10,0,0,0,1-2.17c.09-.39.26-.59.5-.59a.36.36,0,0,1,.34.38.92.92,0,0,1-.1.44c-.2.51-.41,1-.63,1.51a7.56,7.56,0,0,1-.84,1.39,2.15,2.15,0,0,1-1.67,1,1.44,1.44,0,0,1-.75-.21,1.4,1.4,0,0,1-.55-.53,1.65,1.65,0,0,1-.25-.65,5.16,5.16,0,0,1-.05-.71,7.09,7.09,0,0,1,.1-1.22q.09-.62.21-1.23c.1-.52.19-1,.25-1.56a.76.76,0,0,0,0-.14.62.62,0,0,0,0-.15.37.37,0,0,0,0-.12.11.11,0,0,0,0-.08l0,0,0,0h0c-.17,0-.31.16-.43.41a22.67,22.67,0,0,0-1.87,5.13,3.06,3.06,0,0,1-.2.63A.9.9,0,0,1,168,13Z"/>
        <path class="cls-1" d="M176,13h0a1.46,1.46,0,0,1-1.09-.7,2.8,2.8,0,0,1-.38-1.29,5.43,5.43,0,0,1,0-.57,7.81,7.81,0,0,1,.09-1.18c.06-.4.15-.79.24-1.18a10.39,10.39,0,0,1,.4-1.23,4.63,4.63,0,0,1,.65-1.09A2.25,2.25,0,0,1,177,5,2,2,0,0,1,177.5,5a3.65,3.65,0,0,1,1.61.46.86.86,0,0,1,0-.28.47.47,0,0,1,.15-.35.46.46,0,0,1,.23-.06.86.86,0,0,1,.28,0,3.68,3.68,0,0,1,.59.18,1,1,0,0,1,.59.94,11.48,11.48,0,0,1-.39,1.87c-.14.53-.27,1.07-.38,1.61a10.83,10.83,0,0,0-.23,1.79.75.75,0,0,0,0,.26.42.42,0,0,0,.3.29h0a.49.49,0,0,0,.37-.18,2.89,2.89,0,0,0,.56-.73,18.27,18.27,0,0,0,1-2,1.58,1.58,0,0,1,.13-.26.64.64,0,0,1,.2-.2.46.46,0,0,1,.22-.07c.14,0,.23.08.28.25a.87.87,0,0,1,0,.36,17.83,17.83,0,0,1-1.51,3,2.92,2.92,0,0,1-.77.9,1.66,1.66,0,0,1-.9.27,1.77,1.77,0,0,1-1-.33,1.75,1.75,0,0,1-.55-.68,1.93,1.93,0,0,1-.2-.85,1.5,1.5,0,0,1,0-.29c-.1.19-.2.37-.28.54a5.32,5.32,0,0,1-.5.87,2.09,2.09,0,0,1-.56.55A1.28,1.28,0,0,1,176,13Zm.47-1.37a.53.53,0,0,0,.15-.08l.12-.13.07-.1a7.65,7.65,0,0,0,.39-.66,4.13,4.13,0,0,0,.19-.44h0v0c.44-1.12.81-2.24,1.13-3.36l.1-.34a.17.17,0,0,0,0-.12.31.31,0,0,1,.2-.23l-.2-.1-.07,0h-.07l-.26,0-.1,0h-.06l-.09,0-.16.1h0a2,2,0,0,0-.32.33l0,0a1.77,1.77,0,0,0-.17.26,3.42,3.42,0,0,0-.21.43l-.1.21a9.35,9.35,0,0,0-.57,2.1l0,.27c0,.34,0,.68-.07,1l0,.47A1.18,1.18,0,0,0,176.51,11.66Z"/>
        <path class="cls-1" d="M183.37,13.05a1.61,1.61,0,0,1-.48-.08,2,2,0,0,1-1.13-2.09,5.4,5.4,0,0,1,0-.56,9.63,9.63,0,0,1,1.12-3.77A2.69,2.69,0,0,1,184.65,5a1.27,1.27,0,0,1,.34,0,2.45,2.45,0,0,1,.87.17,6.65,6.65,0,0,1,.85.41c.37-1.55.68-3.11.92-4.68a.86.86,0,0,1,.05-.23.36.36,0,0,1,.13-.19A.37.37,0,0,1,188,.35a1,1,0,0,1,.32.06,1.28,1.28,0,0,1,1.08,1.28,2.32,2.32,0,0,1-.07.56q-1.67,7.62-1.71,7.89a4.62,4.62,0,0,0-.07.82,2.44,2.44,0,0,0,0,.27.86.86,0,0,0,0,.24.33.33,0,0,0,.13.17.35.35,0,0,0,.19.06.61.61,0,0,0,.37-.14,6.43,6.43,0,0,0,2-2.72,1.17,1.17,0,0,1,.29-.48.42.42,0,0,1,.29-.11.41.41,0,0,1,.22.08.34.34,0,0,1,.11.25.8.8,0,0,1-.12.4,13.44,13.44,0,0,1-1.77,2.87,4.42,4.42,0,0,1-.95.88,1.79,1.79,0,0,1-1,.3l-.25,0a1.59,1.59,0,0,1-1.07-.73,2.42,2.42,0,0,1-.38-1.26q-.23.42-.48.81a3.51,3.51,0,0,1-.62.71A1.89,1.89,0,0,1,183.37,13.05Zm.62-1.38a.53.53,0,0,0,.41-.25,4.43,4.43,0,0,0,.62-.93,10.71,10.71,0,0,0,.47-1l.17-.41c.18-.43.34-.87.5-1.32a9.43,9.43,0,0,0,.37-1.33,1,1,0,0,0,0-.15l-.13-.06a1.56,1.56,0,0,0-.6-.18.76.76,0,0,0-.51.21,2.22,2.22,0,0,0-.38.49A10.33,10.33,0,0,0,183.72,10a3.46,3.46,0,0,0-.11.84,1.38,1.38,0,0,0,.13.65A.27.27,0,0,0,184,11.67Z"/>
        <path class="cls-1" d="M191.46,13h0a1.46,1.46,0,0,1-1.09-.7A2.93,2.93,0,0,1,190,11a5.43,5.43,0,0,1,0-.57A7.81,7.81,0,0,1,190,9.29c.07-.4.15-.79.25-1.18a7.68,7.68,0,0,1,.4-1.23,4.28,4.28,0,0,1,.64-1.09A2.25,2.25,0,0,1,192.37,5a2,2,0,0,1,.55-.08,3.65,3.65,0,0,1,1.61.46.86.86,0,0,1,0-.28.47.47,0,0,1,.15-.35.48.48,0,0,1,.24-.06.84.84,0,0,1,.27,0,3.68,3.68,0,0,1,.59.18,1,1,0,0,1,.59.94,11.48,11.48,0,0,1-.39,1.87c-.14.53-.27,1.07-.38,1.61a10.83,10.83,0,0,0-.23,1.79.75.75,0,0,0,0,.26.42.42,0,0,0,.3.29h0a.51.51,0,0,0,.38-.18,2.86,2.86,0,0,0,.55-.73,16.68,16.68,0,0,0,1-2c0-.09.08-.17.13-.26a.58.58,0,0,1,.21-.2.4.4,0,0,1,.21-.07c.14,0,.23.08.28.25a.87.87,0,0,1,0,.36,18.57,18.57,0,0,1-1.5,3,3.1,3.1,0,0,1-.78.9,1.63,1.63,0,0,1-.9.27,1.77,1.77,0,0,1-1-.33,1.75,1.75,0,0,1-.55-.68,1.93,1.93,0,0,1-.2-.85,1.5,1.5,0,0,1,0-.29l-.28.54a5.32,5.32,0,0,1-.5.87,2.09,2.09,0,0,1-.56.55A1.28,1.28,0,0,1,191.46,13Zm.47-1.37a.53.53,0,0,0,.15-.08l.12-.13.07-.1a7.65,7.65,0,0,0,.39-.66,4.13,4.13,0,0,0,.19-.44h0v0c.44-1.12.81-2.24,1.13-3.36l.1-.34s0-.06,0-.12a.31.31,0,0,1,.2-.23l-.2-.1-.07,0H194l-.25,0-.11,0h-.06l-.09,0-.16.1h0a2,2,0,0,0-.32.33l0,0a1.77,1.77,0,0,0-.17.26,3.42,3.42,0,0,0-.21.43l-.1.21a9.35,9.35,0,0,0-.57,2.1l0,.27c0,.34-.05.68-.07,1l0,.47A1.68,1.68,0,0,0,191.93,11.66Z"/>
        <path class="cls-1" d="M200.38,13.18a5.12,5.12,0,0,1-.78-.06,2.12,2.12,0,0,1-.71-.23,1.81,1.81,0,0,1-.7-.7,2,2,0,0,1-.25-1c0-.37.06-.61.2-.69a.37.37,0,0,1,.22-.08.35.35,0,0,1,.26.11.41.41,0,0,1,.11.28.88.88,0,0,1,0,.17.64.64,0,0,0,0,.2,1.33,1.33,0,0,0,.13.48l.11.26a.75.75,0,0,0,.55.27.63.63,0,0,0,.54-.32,1.22,1.22,0,0,0,.21-.69,2.27,2.27,0,0,0-.13-.71,8.35,8.35,0,0,0-.5-1.16,9.62,9.62,0,0,1-.66-1.64c-.18.38-.36.75-.52,1.13a.39.39,0,0,1-.6.07.36.36,0,0,1-.11-.25.46.46,0,0,1,.05-.2c.31-.71.65-1.41,1-2.09a5.5,5.5,0,0,1,.62-.92,1.74,1.74,0,0,1,.94-.61,2.21,2.21,0,0,1,.75-.14,2.11,2.11,0,0,1,.86.18.45.45,0,0,1,.17.08,1.21,1.21,0,0,1,.29.19.37.37,0,0,1,.13.29.42.42,0,0,1-.11.26.34.34,0,0,1-.27.12.46.46,0,0,1-.23,0,.9.9,0,0,0-.27-.06.58.58,0,0,0-.43.17.9.9,0,0,0-.23.43,1.88,1.88,0,0,0-.07.53,2.4,2.4,0,0,0,.21,1c.1.22.2.45.32.68.19.38.36.76.51,1.15a3.23,3.23,0,0,1,.23,1.19,2.45,2.45,0,0,1-.14.8l0,.06a.55.55,0,0,1-.14.28,1.66,1.66,0,0,1,.31-.12,2.78,2.78,0,0,0,1-.52,3.61,3.61,0,0,0,1.11-1.43,1.87,1.87,0,0,0,.15-.73,1.4,1.4,0,0,0-.15-.6.91.91,0,0,1-.13-.4.35.35,0,0,1,.13-.27.74.74,0,0,1,.32-.19,1,1,0,0,1,.37-.07,1,1,0,0,1,.44.1.82.82,0,0,1,.43.48,1.76,1.76,0,0,1,.12.63,2.5,2.5,0,0,1-.22,1,4.52,4.52,0,0,1-.55.95,7.6,7.6,0,0,1-.68.78,5.34,5.34,0,0,1-1.89,1.15A6.53,6.53,0,0,1,200.38,13.18Z"/>
      </g>
      <g>
        <path class="cls-2" d="M9.22,36H9.15a8.82,8.82,0,0,1-3.48-.72,6,6,0,0,1-2.78-2.45A6.87,6.87,0,0,1,2,29.4a7.92,7.92,0,0,1,1-3.77,9.69,9.69,0,0,1,2.63-3c.18-.14.37-.27.56-.39a4.84,4.84,0,0,1-1.09-3.09v-.11A9,9,0,0,1,6.7,13.77a9.19,9.19,0,0,1,1.42-1.52,7.83,7.83,0,0,1,1.82-1.14,4.88,4.88,0,0,1,2-.45,3.32,3.32,0,0,1,1.36.29c1,.44,1.51,1.46,1.51,3.05a8.77,8.77,0,0,1-.35,2.52,5,5,0,0,1-.31,1,1.37,1.37,0,0,1-.68.7,2.23,2.23,0,0,1-1,.23,3.44,3.44,0,0,1-1-.16,1.37,1.37,0,0,1-.74-.52.83.83,0,0,1-.11-.4.73.73,0,0,1,.2-.49l.21-.21a1.77,1.77,0,0,0,.3-.31,3,3,0,0,0,.5-.94,12.47,12.47,0,0,0,.42-1.33,7.21,7.21,0,0,0,.15-1.33.25.25,0,0,0-.09-.2.29.29,0,0,0-.22-.09,1.27,1.27,0,0,0-.71.23,5.49,5.49,0,0,0-.7.54,8.41,8.41,0,0,0-2.14,2.64A5.18,5.18,0,0,0,8,18.28a3.37,3.37,0,0,0,2.3,3.14l.65.26a.61.61,0,0,1,.37.58A1.89,1.89,0,0,1,9.86,24a5.26,5.26,0,0,0-1.51.77A4.77,4.77,0,0,0,6.75,27a8.93,8.93,0,0,0-.63,2.32l0,.39a4,4,0,0,0,1,2.61,3.76,3.76,0,0,0,1.54,1.11,5.24,5.24,0,0,0,1.85.31,7,7,0,0,0,3.61-1,11.92,11.92,0,0,0,5-6.14,9.34,9.34,0,0,0,.43-1.15.65.65,0,0,1,1.09-.28.59.59,0,0,1,.2.46,3.74,3.74,0,0,1-.33,1l-.13.31A17.65,17.65,0,0,1,17.27,32a12.08,12.08,0,0,1-5.07,3.47A8.92,8.92,0,0,1,9.22,36Z"/>
        <path class="cls-2" d="M20,33.29A1.83,1.83,0,0,1,19,33a1,1,0,0,1-.48-.87,5.83,5.83,0,0,1,.14-1q.61-4.14,1.63-10a7.44,7.44,0,0,0,.16-1.45v-.33a.62.62,0,0,1,.19-.46.64.64,0,0,1,.46-.19.78.78,0,0,1,.21,0h.12l.3,0a2.51,2.51,0,0,1,1.12.32,1.82,1.82,0,0,1,.87,1.49,2.74,2.74,0,0,1-.06.56h0l-.23,1.51-.33,2a17.26,17.26,0,0,1,2-4,3.1,3.1,0,0,1,2.5-1.55,2,2,0,0,1,1.33.48A2.86,2.86,0,0,1,29.85,22a7.86,7.86,0,0,1-.05.83q-.18,1.57-.51,3.18c-.13.69-.26,1.43-.39,2.2l0,.2a9.49,9.49,0,0,0-.17,1.66,3.82,3.82,0,0,0,0,.57.74.74,0,0,0,.22.45.48.48,0,0,0,.36.15,2.34,2.34,0,0,0,1.45-.86l.06,0a7,7,0,0,0,1.43-1.8,4.36,4.36,0,0,0,.6-2.16v-.29a1.2,1.2,0,0,0-.26-.66.76.76,0,0,1-.19-.49.79.79,0,0,1,.51-.73,2.33,2.33,0,0,1,1-.25,1.7,1.7,0,0,1,.89.26A2.13,2.13,0,0,1,35.56,26a4.24,4.24,0,0,1-.3,1.59A10.16,10.16,0,0,1,32.89,31a6.18,6.18,0,0,1-4.34,2.14,3.29,3.29,0,0,1-1.38-.29,2.42,2.42,0,0,1-1.08-.93,2.85,2.85,0,0,1-.4-1.12,8.11,8.11,0,0,1-.08-1.23,14.46,14.46,0,0,1,.17-2.27c.12-.75.24-1.51.38-2.26.08-.36.14-.73.2-1.1l.18-1.12a5.71,5.71,0,0,0,.09-.78c0-.29-.09-.45-.28-.47a.36.36,0,0,0-.29.15q-.24.27-.24.33a11.83,11.83,0,0,0-.89,1.69l-.09.18a47.35,47.35,0,0,0-2.61,7.67,4.5,4.5,0,0,1-.27.95,1.13,1.13,0,0,1-.46.53,2.78,2.78,0,0,1-1,.21H20Z"/>
        <path class="cls-2" d="M53,33.19a2.75,2.75,0,0,1-1.89-.67A3.41,3.41,0,0,1,50,29.84v-.19c-.21.38-.41.74-.62,1.09a9.55,9.55,0,0,1-1.12,1.6,2.55,2.55,0,0,1-1,.63,3.1,3.1,0,0,1-1.16.22l-.39,0a2.85,2.85,0,0,1-1.49-.65,3.43,3.43,0,0,1-1.09-2.73,18.45,18.45,0,0,1,.14-2,26.71,26.71,0,0,1,.65-3.53c.13-.55.27-1.11.42-1.66.27-1.06.44-1.75.5-2.1a.21.21,0,0,1,0-.12v-.33a4.84,4.84,0,0,0,0-.63.64.64,0,0,1,.19-.47.65.65,0,0,1,.47-.2,1.11,1.11,0,0,1,.27.06l.35.08a2.93,2.93,0,0,1,1.36.6,1.88,1.88,0,0,1,.55,1.31,3.87,3.87,0,0,1-.12.81l0,.13c-.06.27-.12.54-.19.8L47.36,24c-.27,1.13-.53,2.27-.77,3.41l-.06.35a8.45,8.45,0,0,0-.23,1.81l0,.53c.11.49.3.74.59.74a1.1,1.1,0,0,0,.68-.3,8.44,8.44,0,0,0,1.81-2.82l.7-1.41.39-.83c.16-.81.48-2.14,1-4a9.27,9.27,0,0,0,.28-1.45l0-.38,0-.27a.59.59,0,0,1,.2-.45.65.65,0,0,1,.47-.2l.25.05L53,19a2.8,2.8,0,0,1,1.33.58,2,2,0,0,1,.57,1.36,3.16,3.16,0,0,1-.12.76L54.19,24c-.27,1.13-.52,2.27-.76,3.41-.08.33-.14.65-.19,1l0,.25a7.4,7.4,0,0,0-.07,1,3.59,3.59,0,0,0,0,.47c.09.49.3.74.62.74a1.42,1.42,0,0,0,1-.62l.08-.09v0a.8.8,0,0,0,.15-.21,16.12,16.12,0,0,0,1.24-2.18l1.2-2.49a.52.52,0,0,1,.4-.31l.13,0a1,1,0,0,1,.27.05l.06,0a.55.55,0,0,1,.32.33l0,.24a.55.55,0,0,1,0,.19.32.32,0,0,1,0,.11.05.05,0,0,0,0,.05,39.22,39.22,0,0,1-2.38,4.81A4.44,4.44,0,0,1,54.1,33,3,3,0,0,1,53,33.19Z"/>
        <path class="cls-2" d="M57.86,33.29a1.83,1.83,0,0,1-1-.31,1,1,0,0,1-.48-.87,5.83,5.83,0,0,1,.14-1q.61-4.14,1.63-10a7.44,7.44,0,0,0,.16-1.45v-.33a.62.62,0,0,1,.19-.46.64.64,0,0,1,.46-.19.78.78,0,0,1,.21,0h.12l.3,0a2.51,2.51,0,0,1,1.12.32,1.82,1.82,0,0,1,.87,1.49,2.74,2.74,0,0,1-.06.56h0l-.23,1.51-.33,2a17.66,17.66,0,0,1,2-4,3.1,3.1,0,0,1,2.5-1.55,2,2,0,0,1,1.33.48A2.86,2.86,0,0,1,67.7,22a7.86,7.86,0,0,1,0,.83q-.18,1.57-.51,3.18c-.13.69-.26,1.43-.39,2.2l0,.2a9.49,9.49,0,0,0-.17,1.66,3.82,3.82,0,0,0,0,.57.8.8,0,0,0,.22.45.48.48,0,0,0,.36.15,2.34,2.34,0,0,0,1.45-.86l.06,0a7,7,0,0,0,1.43-1.8,4.36,4.36,0,0,0,.6-2.16v-.29a1.2,1.2,0,0,0-.26-.66.76.76,0,0,1-.19-.49.79.79,0,0,1,.51-.73,2.33,2.33,0,0,1,1-.25,1.7,1.7,0,0,1,.89.26A2.13,2.13,0,0,1,73.41,26a4.24,4.24,0,0,1-.3,1.59A10.16,10.16,0,0,1,70.74,31a6.18,6.18,0,0,1-4.34,2.14A3.29,3.29,0,0,1,65,32.85a2.42,2.42,0,0,1-1.08-.93,2.85,2.85,0,0,1-.4-1.12,8.11,8.11,0,0,1-.08-1.23,14.46,14.46,0,0,1,.17-2.27c.12-.75.24-1.51.39-2.26.07-.36.13-.73.19-1.1l.18-1.12a5.71,5.71,0,0,0,.09-.78c0-.29-.09-.45-.28-.47a.36.36,0,0,0-.29.15q-.24.27-.24.33a11.83,11.83,0,0,0-.89,1.69l-.09.18a47.35,47.35,0,0,0-2.61,7.67,4.5,4.5,0,0,1-.27.95,1.13,1.13,0,0,1-.46.53,2.78,2.78,0,0,1-1,.21h-.47Z"/>
        <path class="cls-2" d="M86,33.46a1.71,1.71,0,0,1-.53-.05h-.09A3.36,3.36,0,0,1,82.93,32a3.57,3.57,0,0,1-.59-2c0-.65.12-1,.34-1.2a.75.75,0,0,1,.4-.12h.17a.54.54,0,0,1,.35.23.79.79,0,0,1,.12.42l0,.15a3.47,3.47,0,0,0-.06.45A2,2,0,0,0,84,31.16a1.1,1.1,0,0,0,.94.56,1.18,1.18,0,0,0,.75-.33A1.74,1.74,0,0,0,86.28,30a3.35,3.35,0,0,0-.21-1.16,10.28,10.28,0,0,0-.66-1.63l-.27-.61c-.21-.39-.39-.79-.56-1.19A10.55,10.55,0,0,1,84.06,24c-.31.64-.61,1.29-.9,1.94a.56.56,0,0,1-.57.32.61.61,0,0,1-.52-.24.86.86,0,0,1-.13-.38.69.69,0,0,1,.09-.34,31.15,31.15,0,0,1,1.78-3.62,9.84,9.84,0,0,1,1.07-1.59,3.23,3.23,0,0,1,1.54-1l.07,0a4.22,4.22,0,0,1,1.32-.24,3.6,3.6,0,0,1,1.49.32.84.84,0,0,1,.29.12l.19.12.16.09a.5.5,0,0,1,.14.15.62.62,0,0,1,.23.48l0,.17a.56.56,0,0,1-.24.35.64.64,0,0,1-.4.15.38.38,0,0,1-.17,0,2.44,2.44,0,0,0-.5-.15h-.07l-.21,0-.13,0a.92.92,0,0,0-.63.38v0a1.31,1.31,0,0,0-.21.41,2.9,2.9,0,0,0-.2,1.1,4.25,4.25,0,0,0,.32,1.65c.21.53.44,1.05.7,1.57a13.5,13.5,0,0,1,.83,1.85,6,6,0,0,1,.35,2,4.43,4.43,0,0,1-.07.81,8.33,8.33,0,0,0,.71-.74A20,20,0,0,0,93,25.27.65.65,0,0,1,93.6,25a.72.72,0,0,1,.33.07.66.66,0,0,1,.32.55.69.69,0,0,1-.09.34,20.7,20.7,0,0,1-2.6,4.2,9.08,9.08,0,0,1-4.12,3.09A4.38,4.38,0,0,1,86,33.46Z"/>
        <path class="cls-2" d="M95.83,33.38h-.21a3.23,3.23,0,0,1-1.68-.65,4.23,4.23,0,0,1-1.19-1.37A7.93,7.93,0,0,1,92,27.9l0-.61a12.13,12.13,0,0,1,.88-4.71,5.26,5.26,0,0,1,3.36-3.47,3.8,3.8,0,0,1,.89-.1,3.59,3.59,0,0,1,2.16.72c1.16,1.05,1.74,2.7,1.74,4.93a15.49,15.49,0,0,1-.53,3.82A5,5,0,0,0,103,25.82l.06-.12c.23-.52.53-.78.89-.78l.17,0a.79.79,0,0,1,.39.74,2.17,2.17,0,0,1-.33.81,7.09,7.09,0,0,1-2.88,3,3.28,3.28,0,0,1-1.39.3,7.47,7.47,0,0,1-1.63,2.49,4.49,4.49,0,0,1-1.15.78A3.3,3.3,0,0,1,95.83,33.38Zm.73-1.63a.85.85,0,0,0,.43-.3,5.75,5.75,0,0,0,1.16-2l0-.1a.19.19,0,0,0-.11-.14,4.54,4.54,0,0,1-1.49-3.35,8.83,8.83,0,0,1,0-.89A17.93,17.93,0,0,1,97,21.09a9.63,9.63,0,0,0-1.45,3.81,19.39,19.39,0,0,0-.32,3.35,9.36,9.36,0,0,0,.2,1.9,3.22,3.22,0,0,0,.45,1.21.72.72,0,0,0,.59.39Zm2-3.89.18-1.06c0-.33.06-.58.07-.77a4.67,4.67,0,0,0,0-.52c0-.17,0-.41,0-.71l0-1.16c-.09-.58-.16-1-.21-1.21a5.09,5.09,0,0,0-.35-1c-.09.32-.16.58-.2.76s-.07.35-.09.49,0,.31,0,.5,0,.44-.07.74,0,.68,0,1,0,.52,0,.81A5,5,0,0,0,98,26.82a5.74,5.74,0,0,0,.35.75v0a.8.8,0,0,0,.15.21l0,0A.08.08,0,0,0,98.59,27.86Z"/>
        <path class="cls-2" d="M105.4,33.25A2.88,2.88,0,0,1,103,32a4.13,4.13,0,0,1-.48-1.26,7.07,7.07,0,0,1-.14-1.32,10.57,10.57,0,0,1,.18-1.89c.13-.71.27-1.39.41-2q.61-3.11,1.07-5.13l1-4.76.14-.74c.18-.81.32-1.56.41-2.25v0s0,0,0,0l0-.46V11.9a.67.67,0,0,1,.66-.66,1,1,0,0,1,.35.06,1.5,1.5,0,0,0,.3.1,2.79,2.79,0,0,1,1.22.51,1.94,1.94,0,0,1,.5.68,2,2,0,0,1,.17.79,3.07,3.07,0,0,1-.07.6q-.75,3.64-1.64,7.63c-.91,4.12-1.41,6.41-1.48,6.87s-.07.71-.09,1.16l0,.48c0,.1,0,.19.07.27a1.63,1.63,0,0,0,.14.37l.06.07.06,0,.06,0a.08.08,0,0,0,.06,0l.09,0,.17,0a.4.4,0,0,0,.15,0l.2-.06.1-.06c.19-.11.35-.2.46-.28h0c.28-.25.51-.45.67-.62a7.48,7.48,0,0,0,.6-.71l.16-.21a25.72,25.72,0,0,0,1.87-3.16h0l.2-.42a.59.59,0,0,1,.59-.43,1.28,1.28,0,0,1,.34.09.55.55,0,0,1,.22.23.65.65,0,0,1,.1.36,1.71,1.71,0,0,1,0,.24l-.08.18a31.84,31.84,0,0,1-1.59,3,15.14,15.14,0,0,1-2.08,2.69,7.72,7.72,0,0,1-1.25,1.06A2.59,2.59,0,0,1,105.4,33.25Z"/>
        <path class="cls-2" d="M113.62,33.4a3.4,3.4,0,0,1-1.41-.32,3.15,3.15,0,0,1-1.17-.91,7.49,7.49,0,0,1-1.36-4.76,13.27,13.27,0,0,1,.84-4.68,8.39,8.39,0,0,1,1-1.87A5,5,0,0,1,113,19.5a3.46,3.46,0,0,1,1.85-.51,3.69,3.69,0,0,1,.92.12.48.48,0,0,1,.18,0,3.34,3.34,0,0,1,1.67,1.22,5.51,5.51,0,0,1,.89,2,10.53,10.53,0,0,1,.26,2.3,14,14,0,0,1-.42,3.37,4.78,4.78,0,0,0,2-1.45,6.44,6.44,0,0,0,1.07-1.87,4.44,4.44,0,0,0,.35-1.72,1.51,1.51,0,0,0-.09-.55,3.08,3.08,0,0,0-.26-.51.75.75,0,0,1-.09-.33.81.81,0,0,1,.48-.74,2.08,2.08,0,0,1,1-.26,1.61,1.61,0,0,1,1.09.43,1.64,1.64,0,0,1,.47.77,3.42,3.42,0,0,1,.13.93,5.72,5.72,0,0,1-1.4,3.44A11.26,11.26,0,0,1,120,29.08a5.13,5.13,0,0,1-2.26.71,6.58,6.58,0,0,1-2.22,3A3.31,3.31,0,0,1,113.62,33.4Zm.62-1.65a.9.9,0,0,0,.7-.43,9.18,9.18,0,0,0,.68-1.16,3.45,3.45,0,0,0,.35-.87h0Q114.28,28,114.28,25a16.7,16.7,0,0,1,.48-3.86c-.12.18-.21.32-.27.43l0,.08a12.84,12.84,0,0,0-1.3,4.37,13.36,13.36,0,0,0-.18,2.18,8.31,8.31,0,0,0,.45,2.8,1.77,1.77,0,0,0,.31.55A.62.62,0,0,0,114.24,31.75Zm2.11-3.87,0-.05a.79.79,0,0,1,0-.22,2.68,2.68,0,0,0,.07-.27,1,1,0,0,0,0-.17,15.06,15.06,0,0,0,.18-2.27,12.78,12.78,0,0,0-.26-2.59,2.34,2.34,0,0,0-.34-.85s0,.11,0,.22-.05.23-.08.34l-.06.21a15.17,15.17,0,0,0-.28,2.69A4.46,4.46,0,0,0,116.35,27.88Z"/>
        <path class="cls-2" d="M135.13,33.25A2.88,2.88,0,0,1,132.7,32a3.87,3.87,0,0,1-.47-1.26,6.36,6.36,0,0,1-.15-1.32,10.57,10.57,0,0,1,.18-1.89c.13-.71.27-1.39.41-2q.62-3.11,1.07-5.13l1-4.76.13-.74c.18-.81.32-1.56.41-2.25,0,0,0,0,0,0v0l0-.46,0-.17a.67.67,0,0,1,.66-.66,1,1,0,0,1,.35.06,1.5,1.5,0,0,0,.3.1,2.83,2.83,0,0,1,1.23.51,1.91,1.91,0,0,1,.49.68,2,2,0,0,1,.17.79,3.05,3.05,0,0,1-.06.6q-.75,3.64-1.65,7.63-1.37,6.18-1.47,6.87c0,.32-.07.71-.09,1.16l0,.48a1.68,1.68,0,0,1,.06.27,1.77,1.77,0,0,0,.15.37l.05.07.06,0,.06,0,.06,0,.1,0,.16,0a.41.41,0,0,0,.16,0l.19-.06.11-.06c.19-.11.34-.2.45-.28h0c.28-.25.5-.45.67-.62s.36-.41.59-.71l.17-.21a27.05,27.05,0,0,0,1.87-3.16h0l.19-.42a.6.6,0,0,1,.59-.43,1.18,1.18,0,0,1,.34.09.56.56,0,0,1,.23.23.75.75,0,0,1,.1.36.77.77,0,0,1-.06.24,1.12,1.12,0,0,1-.08.18,27.81,27.81,0,0,1-1.59,3,15.56,15.56,0,0,1-2.07,2.69,7.79,7.79,0,0,1-1.26,1.06A2.59,2.59,0,0,1,135.13,33.25Z"/>
        <path class="cls-2" d="M149.22,33.19a2.79,2.79,0,0,1-1.89-.67,3.41,3.41,0,0,1-1.08-2.68v-.19c-.2.38-.41.74-.62,1.09a9,9,0,0,1-1.12,1.6,2.55,2.55,0,0,1-1,.63,3.09,3.09,0,0,1-1.15.22l-.4,0a2.85,2.85,0,0,1-1.49-.65,3.47,3.47,0,0,1-1.09-2.73,18.45,18.45,0,0,1,.14-2,28.44,28.44,0,0,1,.65-3.53c.13-.55.27-1.11.42-1.66.27-1.06.44-1.75.5-2.1a.21.21,0,0,1,0-.12v-.33a4.84,4.84,0,0,0,0-.63.64.64,0,0,1,.19-.47.67.67,0,0,1,.47-.2,1.11,1.11,0,0,1,.27.06l.35.08a2.88,2.88,0,0,1,1.36.6,1.89,1.89,0,0,1,.56,1.31,3.87,3.87,0,0,1-.12.81l0,.13c-.06.27-.13.54-.2.8L143.62,24c-.27,1.13-.52,2.27-.77,3.41l-.06.35a8.38,8.38,0,0,0-.22,1.81l0,.53c.1.49.29.74.59.74a1.07,1.07,0,0,0,.67-.3,8.44,8.44,0,0,0,1.81-2.82l.7-1.41.39-.83c.16-.81.48-2.14,1-4a9.23,9.23,0,0,0,.27-1.45l0-.38,0-.27a.62.62,0,0,1,.2-.45.69.69,0,0,1,.48-.2l.24.05.39.11a2.76,2.76,0,0,1,1.33.58,2,2,0,0,1,.57,1.36,3.16,3.16,0,0,1-.12.76L150.46,24c-.27,1.13-.53,2.27-.77,3.41-.07.33-.13.65-.18,1l0,.25a7.56,7.56,0,0,0-.08,1,3.59,3.59,0,0,0,0,.47c.09.49.3.74.62.74a1.46,1.46,0,0,0,1-.62l.07-.09v0a.8.8,0,0,0,.15-.21,15.12,15.12,0,0,0,1.24-2.18l1.21-2.49a.53.53,0,0,1,.39-.31l.13,0a1.11,1.11,0,0,1,.28.05l.06,0a.54.54,0,0,1,.31.33l.05.24a.54.54,0,0,1,0,.19.32.32,0,0,1,0,.11s0,0,0,.05a40.66,40.66,0,0,1-2.39,4.81A4.47,4.47,0,0,1,150.37,33,3.09,3.09,0,0,1,149.22,33.19Z"/>
        <path class="cls-2" d="M156.2,44.65a2.63,2.63,0,0,1-.84-.13,2.87,2.87,0,0,1-1.52-1.37,4.26,4.26,0,0,1-.52-2.06,6.74,6.74,0,0,1,1.47-4,13.22,13.22,0,0,1,3-2.81l0,0a2,2,0,0,0,.46-.41,1.91,1.91,0,0,0,.22-.7l.73-4.35c-.21.38-.41.78-.59,1.19a11.37,11.37,0,0,1-1,1.79,4,4,0,0,1-1.07,1,2.39,2.39,0,0,1-1.33.41,2.28,2.28,0,0,1-.45,0,2.44,2.44,0,0,1-1.59-1.3,5.41,5.41,0,0,1-.53-2c0-.4-.06-.81-.06-1.21a15.67,15.67,0,0,1,1.18-5.78c.73-1.92,1.77-3.09,3.14-3.5a3.13,3.13,0,0,1,.86-.12,6.18,6.18,0,0,1,2.65.73v-.25q0-1,.66-1.05a1.22,1.22,0,0,1,.41.07,5.86,5.86,0,0,1,1.33.53,1.62,1.62,0,0,1,.83,1.54,5.07,5.07,0,0,1-.09.94l-1.54,9.32a13.86,13.86,0,0,0,4.37-5.21,1.93,1.93,0,0,1,.46-.71.7.7,0,0,1,.49-.21l.09,0a.46.46,0,0,1,.18.06.59.59,0,0,1,.26.51,1.63,1.63,0,0,1-.21.77,16.33,16.33,0,0,1-5.28,6.14l-.09.06a1.62,1.62,0,0,0-.51.5,17.72,17.72,0,0,0-.58,2.9,37.79,37.79,0,0,1-.9,4.48,7.77,7.77,0,0,1-1.66,3.2A3.5,3.5,0,0,1,156.2,44.65Zm-.6-2.4a.74.74,0,0,0,.32-.16,3.62,3.62,0,0,0,.84-1.36A12.74,12.74,0,0,0,158,35.81a4.86,4.86,0,0,0-1.33,1.07,8.42,8.42,0,0,0-1,1.4,4.56,4.56,0,0,0-.71,2.43,3.75,3.75,0,0,0,.12.95,1,1,0,0,0,.18.4.41.41,0,0,0,.35.19Zm.47-11.36a3.17,3.17,0,0,0,1.24-1.49,32.23,32.23,0,0,0,2-5.08l.27-.76a6.21,6.21,0,0,0,.55-1.88c0-.41-.23-.61-.7-.61a1.6,1.6,0,0,0-.72.18,3.15,3.15,0,0,0-1.13,1.24,13.48,13.48,0,0,0-1.56,4.84,11.51,11.51,0,0,0-.16,1.93A7.47,7.47,0,0,0,156.07,30.89Z"/>
        <path class="cls-2" d="M168.36,33.25h-.06A2.57,2.57,0,0,1,166.4,32a4.9,4.9,0,0,1-.65-2.23c0-.32,0-.65,0-1a13.09,13.09,0,0,1,.16-2.06c.12-.69.26-1.37.43-2a15.44,15.44,0,0,1,.69-2.12,7.2,7.2,0,0,1,1.12-1.89A3.84,3.84,0,0,1,170,19.37a3.41,3.41,0,0,1,1-.14,6.43,6.43,0,0,1,2.79.8,2,2,0,0,1-.06-.48.76.76,0,0,1,.26-.6.7.7,0,0,1,.4-.12,1.71,1.71,0,0,1,.49.07,7,7,0,0,1,1,.32,1.64,1.64,0,0,1,1,1.62,19,19,0,0,1-.68,3.25c-.24.92-.45,1.86-.65,2.79a19,19,0,0,0-.4,3.11,1.33,1.33,0,0,0,.07.45.73.73,0,0,0,.52.5h.06a.86.86,0,0,0,.64-.3,5.42,5.42,0,0,0,1-1.27,32.18,32.18,0,0,0,1.75-3.53,3.19,3.19,0,0,1,.23-.45,1,1,0,0,1,.35-.34.75.75,0,0,1,.37-.13c.24,0,.4.14.48.44a1,1,0,0,1,0,.25,1.13,1.13,0,0,1-.06.36,31.12,31.12,0,0,1-2.61,5.19,5.11,5.11,0,0,1-1.34,1.57,2.83,2.83,0,0,1-1.57.47,3,3,0,0,1-1.76-.57,3.15,3.15,0,0,1-1-1.18,3.31,3.31,0,0,1-.34-1.48,3,3,0,0,1,0-.5c-.17.32-.33.63-.48.94a10.29,10.29,0,0,1-.86,1.51,3.81,3.81,0,0,1-1,.94A2.19,2.19,0,0,1,168.36,33.25Zm.82-2.37a.71.71,0,0,0,.26-.15,1.6,1.6,0,0,0,.21-.23l.13-.17a12.62,12.62,0,0,0,.67-1.14,5.87,5.87,0,0,0,.33-.77h0v0a57.71,57.71,0,0,0,2-5.82l.18-.59a.25.25,0,0,0,.07-.21.57.57,0,0,1,.34-.41,2.91,2.91,0,0,1-.34-.18l-.12-.06h0l-.09,0a2,2,0,0,0-.43,0l-.18.05-.1,0a.44.44,0,0,0-.16.08,1.5,1.5,0,0,0-.29.18l0,0A3.35,3.35,0,0,0,171,22a.07.07,0,0,1,0,.06,3.21,3.21,0,0,0-.29.44c-.13.24-.25.49-.37.75l-.16.37a15.68,15.68,0,0,0-1,3.63l0,.47c-.06.59-.1,1.19-.12,1.78l0,.8A2.78,2.78,0,0,0,169.18,30.88Z"/>
        <path class="cls-2" d="M185.43,33.38a2.75,2.75,0,0,1-2.83-2.85,11.84,11.84,0,0,1,.31-2.31c.16-.81.35-1.71.58-2.68a26.4,26.4,0,0,0,.73-3.67,6.76,6.76,0,0,0-1.39-.19c-.29,0-.59-.06-.89-.1a31.55,31.55,0,0,1-1.52,4.35.57.57,0,0,1-.56.32.66.66,0,0,1-.48-.2.61.61,0,0,1-.18-.42,1,1,0,0,1,.16-.53l.12-.3a33,33,0,0,0,1.19-3.56,2.08,2.08,0,0,1-1.41-1.45,4.37,4.37,0,0,1-.06-.72,4.42,4.42,0,0,1,.42-1.92A2.07,2.07,0,0,1,181,16a.63.63,0,0,1,.33-.09l.66,0a1.58,1.58,0,0,1,.71.17.84.84,0,0,1,.44.57l0,.32a4.87,4.87,0,0,1-.29,1.36l-.3,1.13H184a12.1,12.1,0,0,1,1.21.06,2.64,2.64,0,0,1,2,1,2.23,2.23,0,0,1,.36,1.31,18.68,18.68,0,0,1-.77,3.94c-.29,1.07-.53,2.15-.71,3.23l-.05.39a5.06,5.06,0,0,0-.09,1c0,.46.21.68.61.68a1.79,1.79,0,0,0,.69-.15,3.86,3.86,0,0,0,2.2-2.11,4.9,4.9,0,0,0,.76-2.26,1.42,1.42,0,0,0-.32-.91.81.81,0,0,1-.26-.56.8.8,0,0,1,.5-.7,2.08,2.08,0,0,1,1-.26,1.56,1.56,0,0,1,1.31.66,2.54,2.54,0,0,1,.41,1.42,4.56,4.56,0,0,1-.56,2.14,11,11,0,0,1-2.82,3.41A6.37,6.37,0,0,1,185.43,33.38Z"/>
      </g>
      <path class="cls-2" d="M68.94,67.46h78.65c7,0,12.69,4.68,12.69,10.46h0c0,5.77-5.68,10.45-12.69,10.45H68.94c-7,0-12.69-4.68-12.69-10.45h0C56.25,72.14,61.93,67.46,68.94,67.46Z"/>
      <path class="cls-1" d="M12.06,67.46H75.67c6.66,0,12.06,4.68,12.06,10.46h0c0,5.77-5.4,10.45-12.06,10.45H12.06C5.4,88.37,0,83.69,0,77.92H0C0,72.14,5.4,67.46,12.06,67.46Z"/>
      <g>
        <path class="cls-2" d="M16.36,79l.15,0A.48.48,0,0,1,16.36,79Z"/>
        <path class="cls-2" d="M16.52,79.07l-.15,0A.48.48,0,0,1,16.52,79.07Z"/>
        <path class="cls-2" d="M21.09,76.45c.06-.79-.3-1.14-1.12-1.12-1.36,0-2.73,0-4.09,0a1.69,1.69,0,0,1-1.87-1c-.38-.8-1-.76-1.62-.24a3.18,3.18,0,0,0-.85,3.55,11.71,11.71,0,0,0,2.16,3.69,3.13,3.13,0,0,0,3.5,1c.6-.22.94-.57.83-1.25-.28-.41-.52-.83-.81-1.21a1,1,0,0,0-1.38-.37c-.65.37-1,.11-1.34-.47s-.49-.85-.7-1.29a.57.57,0,0,1,.1-.76c.29-.27.5-.05.72.11.53.41,1.06.81,1.57,1.24a1.14,1.14,0,0,0,1.68,0c.78-.63,1.58-1.24,2.6-2.06,0,1.33,0,2.35,0,3.38,0,.48-.37.5-.73.53a3.15,3.15,0,0,0-1.74.27,2,2,0,0,0-.12-.39.82.82,0,0,0,0,.23.42.42,0,0,0,.17.36.62.62,0,0,0,.38.08,12.61,12.61,0,0,0,2.38-.09c.63-1.36.18-2.81.3-4.23Zm-7.2-.21c-.38.42-1,.74-.74,1.38a5.58,5.58,0,0,0,1.59,2.54,1,1,0,0,0,1.09,0,.76.76,0,0,1,1.1.27c.21.34.61.69.42,1.11s-.75.44-1.21.47a2.82,2.82,0,0,1-2.21-1.24,13.66,13.66,0,0,1-1.72-3,2.65,2.65,0,0,1,.26-2.87c.29-.35.66-.78,1.11-.23s.85,1,.31,1.56ZM17.43,78a.6.6,0,0,1-.77,0q-.87-.66-1.74-1.35a.49.49,0,0,1-.19-.55c.07-.26.3-.27.51-.27H20A19.07,19.07,0,0,1,17.43,78Z"/>
        <path class="cls-2" d="M16.36,79l.15,0A.48.48,0,0,1,16.36,79Z"/>
      </g>
      <g>
        <path class="cls-1" d="M96.41,76.08a1.59,1.59,0,0,0-1.62,1.55,1.64,1.64,0,0,0,1.54,1.64A1.62,1.62,0,0,0,98,77.65a1.53,1.53,0,0,0-1.58-1.57Zm.06,2.52c-.68,0-1.09-.41-1.08-1a.9.9,0,0,1,1-.93.92.92,0,0,1,1,.91.94.94,0,0,1-.89,1Z"/>
        <path class="cls-1" d="M97.81,74.83a3,3,0,0,0-3.32.31,3.08,3.08,0,0,0-1.19,3.3,8.67,8.67,0,0,0,1.48,2.94c1.07,1.6,2.15,1.6,3.23,0a6.83,6.83,0,0,0,1.49-4,2.79,2.79,0,0,0-1.69-2.52Zm-1.14,7.35c-.13.18-.26.27-.5.09a10.09,10.09,0,0,1-2.33-4.82,2.44,2.44,0,0,1,1.41-2.08,2.5,2.5,0,0,1,2.73.3,2.38,2.38,0,0,1,.92,2.57,11.85,11.85,0,0,1-2.23,3.94Z"/>
        <path class="cls-1" d="M96.41,76.08a1.59,1.59,0,0,0-1.62,1.55,1.64,1.64,0,0,0,1.54,1.64A1.62,1.62,0,0,0,98,77.65a1.53,1.53,0,0,0-1.58-1.57Zm.06,2.52c-.68,0-1.09-.41-1.08-1a.9.9,0,0,1,1-.93.92.92,0,0,1,1,.91.94.94,0,0,1-.89,1Z"/>
        <path class="cls-1" d="M97.81,74.83a3,3,0,0,0-3.32.31,3.08,3.08,0,0,0-1.19,3.3,8.67,8.67,0,0,0,1.48,2.94c1.07,1.6,2.15,1.6,3.23,0a6.83,6.83,0,0,0,1.49-4,2.79,2.79,0,0,0-1.69-2.52Zm-1.14,7.35c-.13.18-.26.27-.5.09a10.09,10.09,0,0,1-2.33-4.82,2.44,2.44,0,0,1,1.41-2.08,2.5,2.5,0,0,1,2.73.3,2.38,2.38,0,0,1,.92,2.57,11.85,11.85,0,0,1-2.23,3.94Z"/>
        <path class="cls-1" d="M96.41,76.08a1.59,1.59,0,0,0-1.62,1.55,1.64,1.64,0,0,0,1.54,1.64A1.62,1.62,0,0,0,98,77.65a1.53,1.53,0,0,0-1.58-1.57Zm.06,2.52c-.68,0-1.09-.41-1.08-1a.9.9,0,0,1,1-.93.92.92,0,0,1,1,.91.94.94,0,0,1-.89,1Z"/>
        <path class="cls-1" d="M96.41,76.08a1.59,1.59,0,0,0-1.62,1.55,1.64,1.64,0,0,0,1.54,1.64A1.62,1.62,0,0,0,98,77.65a1.53,1.53,0,0,0-1.58-1.57Zm.06,2.52c-.68,0-1.09-.41-1.08-1a.9.9,0,0,1,1-.93.92.92,0,0,1,1,.91.94.94,0,0,1-.89,1Z"/>
      </g>
      <g>
        <path class="cls-3" d="M31.19,78.63a1.44,1.44,0,0,1,.38,1,1.52,1.52,0,0,1-.23.84,1.63,1.63,0,0,1-.71.6,2.69,2.69,0,0,1-1.16.23,3.72,3.72,0,0,1-1.1-.17,2.54,2.54,0,0,1-.9-.45L27.9,80a2.14,2.14,0,0,0,.7.38,2.77,2.77,0,0,0,.86.14,1.33,1.33,0,0,0,.82-.22.68.68,0,0,0,.3-.59.71.71,0,0,0-.28-.58,1.49,1.49,0,0,0-.87-.21h-.49V78.2l1.21-1.44H27.73v-.82h3.62v.66l-1.29,1.53A1.83,1.83,0,0,1,31.19,78.63Z"/>
        <path class="cls-3" d="M34.06,75.94v5.31h-1V76.76H32v-.82Z"/>
        <path class="cls-3" d="M36.19,81a2.12,2.12,0,0,1-.79-.94,3.47,3.47,0,0,1-.29-1.47,3.54,3.54,0,0,1,.29-1.47,2.23,2.23,0,0,1,.79-.94,2.13,2.13,0,0,1,1.14-.32,2.08,2.08,0,0,1,1.14.32,2.25,2.25,0,0,1,.8.94,3.54,3.54,0,0,1,.29,1.47,3.47,3.47,0,0,1-.29,1.47,2.13,2.13,0,0,1-.8.94,2,2,0,0,1-1.14.33A2.05,2.05,0,0,1,36.19,81Zm2-1a2.47,2.47,0,0,0,.33-1.41,2.43,2.43,0,0,0-.33-1.4,1.09,1.09,0,0,0-1.79,0,2.43,2.43,0,0,0-.33,1.4A2.47,2.47,0,0,0,36.44,80a1.09,1.09,0,0,0,1.79,0Z"/>
        <path class="cls-3" d="M43.55,78.43a1.45,1.45,0,0,1,.54,1.19,1.61,1.61,0,0,1-.94,1.48,2.69,2.69,0,0,1-1.16.23,3.78,3.78,0,0,1-1.11-.17,2.41,2.41,0,0,1-.89-.45l.42-.76a2.09,2.09,0,0,0,.71.38,2.7,2.7,0,0,0,.85.14,1.33,1.33,0,0,0,.82-.22.68.68,0,0,0,.3-.59.67.67,0,0,0-.32-.62,2.1,2.1,0,0,0-1.1-.21H40.38l.28-2.89h3.12v.82H41.49L41.38,78h.51A2.61,2.61,0,0,1,43.55,78.43Z"/>
        <path class="cls-3" d="M48.57,75.94v.66L46.5,81.25h-1l2-4.48H45.36v.9h-.92V75.94Z"/>
        <path class="cls-3" d="M53.19,75.94v.66l-2.07,4.65h-1l2-4.48H50v.9h-.91V75.94Z"/>
        <path class="cls-3" d="M55.71,75.94v5.31h-1V76.76H53.6v-.82Z"/>
        <path class="cls-3" d="M60.15,78.63a1.45,1.45,0,0,1,.39,1,1.53,1.53,0,0,1-.24.84,1.58,1.58,0,0,1-.71.6,2.66,2.66,0,0,1-1.16.23,3.6,3.6,0,0,1-1.09-.17,2.38,2.38,0,0,1-.9-.45l.42-.76a2.14,2.14,0,0,0,.7.38,2.77,2.77,0,0,0,.86.14,1.33,1.33,0,0,0,.82-.22.74.74,0,0,0,0-1.17,1.47,1.47,0,0,0-.87-.21H57.9V78.2l1.21-1.44H56.7v-.82h3.62v.66L59,78.13A1.8,1.8,0,0,1,60.15,78.63Z"/>
        <path class="cls-3" d="M65.27,79a1.31,1.31,0,0,1,.23.76,1.41,1.41,0,0,1-.27.85,1.72,1.72,0,0,1-.77.55,3.38,3.38,0,0,1-2.29,0,1.71,1.71,0,0,1-.75-.55,1.41,1.41,0,0,1-.27-.85,1.38,1.38,0,0,1,.22-.76,1.46,1.46,0,0,1,.63-.51,1.36,1.36,0,0,1-.49-.46,1.3,1.3,0,0,1-.17-.66,1.23,1.23,0,0,1,.25-.78,1.6,1.6,0,0,1,.69-.52,3.09,3.09,0,0,1,2.08,0,1.63,1.63,0,0,1,.7.52,1.3,1.3,0,0,1,.25.78,1.15,1.15,0,0,1-.18.65,1.34,1.34,0,0,1-.5.47A1.43,1.43,0,0,1,65.27,79Zm-1.09,1.36a.76.76,0,0,0,.32-.64.73.73,0,0,0-.32-.62,1.46,1.46,0,0,0-.86-.23,1.44,1.44,0,0,0-.86.23.72.72,0,0,0-.31.62.76.76,0,0,0,.31.64,1.44,1.44,0,0,0,.86.22A1.46,1.46,0,0,0,64.18,80.33Zm-1.6-3.5a.65.65,0,0,0-.27.56.64.64,0,0,0,.27.54,1.47,1.47,0,0,0,1.48,0,.64.64,0,0,0,.27-.54.65.65,0,0,0-.27-.56,1.27,1.27,0,0,0-.74-.2A1.25,1.25,0,0,0,62.58,76.83Z"/>
        <path class="cls-3" d="M70.22,79a1.31,1.31,0,0,1,.23.76,1.41,1.41,0,0,1-.27.85,1.72,1.72,0,0,1-.77.55,3.05,3.05,0,0,1-1.14.2,3,3,0,0,1-1.14-.2,1.69,1.69,0,0,1-.76-.55,1.41,1.41,0,0,1-.27-.85,1.38,1.38,0,0,1,.22-.76,1.46,1.46,0,0,1,.63-.51,1.36,1.36,0,0,1-.49-.46,1.35,1.35,0,0,1,.08-1.44,1.58,1.58,0,0,1,.7-.52,2.71,2.71,0,0,1,1-.18,2.8,2.8,0,0,1,1,.18,1.63,1.63,0,0,1,.7.52,1.3,1.3,0,0,1,.25.78,1.15,1.15,0,0,1-.18.65,1.26,1.26,0,0,1-.5.47A1.43,1.43,0,0,1,70.22,79Zm-1.09,1.36a.74.74,0,0,0,.32-.64.71.71,0,0,0-.32-.62,1.46,1.46,0,0,0-.86-.23,1.44,1.44,0,0,0-.86.23.72.72,0,0,0-.31.62.76.76,0,0,0,.31.64,1.44,1.44,0,0,0,.86.22A1.46,1.46,0,0,0,69.13,80.33Zm-1.59-3.5a.65.65,0,0,0-.27.56.64.64,0,0,0,.27.54,1.2,1.2,0,0,0,.73.2,1.25,1.25,0,0,0,.74-.2.65.65,0,0,0,.28-.54.66.66,0,0,0-.28-.56,1.27,1.27,0,0,0-.74-.2A1.2,1.2,0,0,0,67.54,76.83Z"/>
      </g>
      <g>
        <path class="cls-1" d="M104.79,80.71a2.36,2.36,0,0,1-1-.92,2.46,2.46,0,0,1-.35-1.32,2.62,2.62,0,0,1,.35-1.33,2.5,2.5,0,0,1,1-.92,2.86,2.86,0,0,1,1.37-.33,2.78,2.78,0,0,1,1.13.22,2.32,2.32,0,0,1,.86.62l-.6.56a1.77,1.77,0,0,0-1.34-.58,1.91,1.91,0,0,0-.93.22,1.59,1.59,0,0,0-.63.63,1.92,1.92,0,0,0,0,1.82,1.59,1.59,0,0,0,.63.63,1.91,1.91,0,0,0,.93.22,1.77,1.77,0,0,0,1.34-.59l.6.57a2.32,2.32,0,0,1-.86.62,2.81,2.81,0,0,1-1.13.22A2.7,2.7,0,0,1,104.79,80.71Z"/>
        <path class="cls-1" d="M109,75.66h.89V81H109Z"/>
        <path class="cls-1" d="M111,75.66h.89V81H111Z"/>
        <path class="cls-1" d="M113,80.86a.59.59,0,0,1,.41-1,.57.57,0,0,1,.42.16.63.63,0,0,1,0,.86.57.57,0,0,1-.42.17A.57.57,0,0,1,113,80.86Z"/>
        <path class="cls-1" d="M118.28,76v5h-.93V76.74h-1.06V76Z"/>
        <path class="cls-1" d="M122.45,78.07a1.52,1.52,0,0,1,.61.54,1.49,1.49,0,0,1,.22.81,1.54,1.54,0,0,1-.24.86,1.67,1.67,0,0,1-.66.57,2.18,2.18,0,0,1-.93.2,2,2,0,0,1-1.6-.65,2.68,2.68,0,0,1-.57-1.84,3.08,3.08,0,0,1,.31-1.45,2.1,2.1,0,0,1,.86-.91,2.57,2.57,0,0,1,1.29-.31,3.31,3.31,0,0,1,.72.08,2.35,2.35,0,0,1,.6.24l-.35.7a1.72,1.72,0,0,0-.95-.24,1.45,1.45,0,0,0-1.13.45,1.78,1.78,0,0,0-.41,1.28h0a1.49,1.49,0,0,1,.56-.39,2.36,2.36,0,0,1,.78-.13A2.15,2.15,0,0,1,122.45,78.07Zm-.34,2a.85.85,0,0,0,0-1.24,1.12,1.12,0,0,0-.73-.23,1.07,1.07,0,0,0-.74.25.78.78,0,0,0-.28.61.75.75,0,0,0,.28.61,1.12,1.12,0,0,0,.76.24A1,1,0,0,0,122.11,80.08Z"/>
        <path class="cls-1" d="M127,78.51a1.35,1.35,0,0,1,.36,1,1.48,1.48,0,0,1-.22.8,1.52,1.52,0,0,1-.67.57,2.55,2.55,0,0,1-1.09.21,3.28,3.28,0,0,1-1-.16,2.7,2.7,0,0,1-.85-.42l.4-.73a2.07,2.07,0,0,0,.67.37,2.73,2.73,0,0,0,.8.13,1.29,1.29,0,0,0,.78-.21.63.63,0,0,0,.28-.55.65.65,0,0,0-.27-.55,1.37,1.37,0,0,0-.82-.2h-.45V78.1L126,76.74h-2.27V76h3.41v.63L125.91,78A1.72,1.72,0,0,1,127,78.51Z"/>
        <path class="cls-1" d="M133.33,79.11h1v.65h-1L133.1,81h-.65l.15-1.22h-1.21L131.24,81h-.66l.15-1.22h-1v-.65h1l.17-1.28h-1v-.65h1.05l.15-1.22h.65l-.15,1.22h1.2l.15-1.22h.65l-.15,1.22h1v.65h-1.05Zm-.66,0,.16-1.28h-1.2l-.17,1.28Z"/>
        <path class="cls-1" d="M138.87,78.82a1.25,1.25,0,0,1,.21.72,1.32,1.32,0,0,1-.26.8,1.6,1.6,0,0,1-.72.53,3.33,3.33,0,0,1-2.16,0,1.68,1.68,0,0,1-.71-.53,1.31,1.31,0,0,1-.25-.8,1.25,1.25,0,0,1,.21-.72,1.49,1.49,0,0,1,.59-.48,1.19,1.19,0,0,1-.46-.43,1.17,1.17,0,0,1-.16-.62,1.25,1.25,0,0,1,.23-.74,1.59,1.59,0,0,1,.66-.49,2.88,2.88,0,0,1,1.95,0,1.47,1.47,0,0,1,.66.49,1.19,1.19,0,0,1,.24.74,1.12,1.12,0,0,1-.17.61,1.18,1.18,0,0,1-.47.44A1.49,1.49,0,0,1,138.87,78.82Zm-1,1.28a.73.73,0,0,0,0-1.18,1.69,1.69,0,0,0-1.63,0,.75.75,0,0,0,0,1.18,1.62,1.62,0,0,0,1.63,0Zm-1.51-3.29a.6.6,0,0,0-.25.52.58.58,0,0,0,.25.51A1.11,1.11,0,0,0,137,78a1.12,1.12,0,0,0,.7-.19.57.57,0,0,0,.26-.51.59.59,0,0,0-.26-.52,1.14,1.14,0,0,0-.7-.19A1.11,1.11,0,0,0,136.33,76.81Z"/>
        <path class="cls-1" d="M139.76,78.61h2v.75h-2Z"/>
        <path class="cls-1" d="M146.94,79.84h-.88V81h-.91V79.84H142.4v-.65L144.87,76h1l-2.33,3.09h1.64V78h.88v1h.88Z"/>
        <path class="cls-1" d="M150.45,78.32a1.35,1.35,0,0,1,.51,1.12,1.49,1.49,0,0,1-.22.81,1.48,1.48,0,0,1-.67.58,2.38,2.38,0,0,1-1.09.22,3.28,3.28,0,0,1-1-.16,2.6,2.6,0,0,1-.85-.42l.4-.73a2,2,0,0,0,.67.37,2.73,2.73,0,0,0,.8.13,1.29,1.29,0,0,0,.78-.21.71.71,0,0,0,0-1.14,2,2,0,0,0-1-.2h-1.21l.25-2.73h2.95v.78h-2.16l-.1,1.16h.48A2.42,2.42,0,0,1,150.45,78.32Z"/>
      </g>
    </g>
  </g>
</svg>
